<svg version="1.1"

width="90" height="90"
xmlns="http://www.w3.org/2000/svg">

<circle cx="75" cy="45" r="15" fill="dimgray" />



<polygon points="67.5,32 82.5,32 90,45 82.5,58 67.5,58 60,45" stroke="black" stroke-width="1" fill="white" />
    <line x1="72" x2="78" y1="41" y2="49" stroke="black" stroke-width="2" />
    <line x1="72" x2="78" y1="49" y2="41" stroke="black" stroke-width="2" />

<circle cx="30" cy="45" r="15" fill="dimgray" />
<polygon points="22.5,32 37.5,32 45,45 37.5,58 22.5,58 15,45" stroke="black" stroke-width="1" fill="white" />

<circle cx="52.5" cy="19" r="15" fill="dimgray" />
<polygon points="45,6 60,6 67.5,19 60,32 45,32 37.5,19" stroke="black" stroke-width="1" fill="white" />

<circle cx="52.5" cy="71" r="15" fill="dimgray" />
<polygon points="45,58 60,58 67.5,71 60,84 45,84 37.5,71" stroke="black" stroke-width="1" fill="white" />




</svg>